<mxfile host="app.diagrams.net" modified="2021-04-27T03:08:21.464Z" agent="5.0 (Macintosh; Intel Mac OS X 11_2_3) AppleWebKit/537.36 (KHTML, like Gecko) Chrome/89.0.4389.128 Safari/537.36" etag="xmcF_u40ztpRZdOhgv08" version="14.6.6" type="github">
  <diagram id="7rVMdZczW6YO58kJNmGc" name="第 1 页">
    <mxGraphModel dx="1773" dy="1783" grid="0" gridSize="10" guides="1" tooltips="1" connect="1" arrows="1" fold="1" page="1" pageScale="1" pageWidth="827" pageHeight="1169" math="0" shadow="0">
      <root>
        <mxCell id="0" />
        <mxCell id="1" parent="0" />
        <mxCell id="4nD7JM7ZIE-_De9rm8-C-1" value="" style="group" vertex="1" connectable="0" parent="1">
          <mxGeometry x="-105" y="-173" width="939" height="602" as="geometry" />
        </mxCell>
        <mxCell id="fpGJ1PohXhWPPfaMkgI3-1" value="Actor" style="shape=umlActor;verticalLabelPosition=bottom;verticalAlign=top;html=1;outlineConnect=0;" parent="4nD7JM7ZIE-_De9rm8-C-1" vertex="1">
          <mxGeometry x="5" y="401" width="30" height="60" as="geometry" />
        </mxCell>
        <mxCell id="fpGJ1PohXhWPPfaMkgI3-6" style="edgeStyle=orthogonalEdgeStyle;rounded=0;orthogonalLoop=1;jettySize=auto;html=1;exitX=0;exitY=0;exitDx=0;exitDy=0;curved=1;entryX=0.5;entryY=0;entryDx=0;entryDy=0;" parent="4nD7JM7ZIE-_De9rm8-C-1" source="fpGJ1PohXhWPPfaMkgI3-2" target="fpGJ1PohXhWPPfaMkgI3-2" edge="1">
          <mxGeometry relative="1" as="geometry">
            <mxPoint x="259" y="388" as="targetPoint" />
            <Array as="points">
              <mxPoint x="171" y="374" />
              <mxPoint x="231" y="374" />
            </Array>
          </mxGeometry>
        </mxCell>
        <mxCell id="fpGJ1PohXhWPPfaMkgI3-2" value="订单" style="rounded=1;whiteSpace=wrap;html=1;" parent="4nD7JM7ZIE-_De9rm8-C-1" vertex="1">
          <mxGeometry x="151" y="421" width="120" height="60" as="geometry" />
        </mxCell>
        <mxCell id="fpGJ1PohXhWPPfaMkgI3-3" style="edgeStyle=orthogonalEdgeStyle;rounded=0;orthogonalLoop=1;jettySize=auto;html=1;exitX=0.5;exitY=0.5;exitDx=0;exitDy=0;exitPerimeter=0;entryX=0;entryY=0.5;entryDx=0;entryDy=0;" parent="4nD7JM7ZIE-_De9rm8-C-1" source="fpGJ1PohXhWPPfaMkgI3-1" target="fpGJ1PohXhWPPfaMkgI3-2" edge="1">
          <mxGeometry relative="1" as="geometry" />
        </mxCell>
        <mxCell id="fpGJ1PohXhWPPfaMkgI3-4" value="支付,取消,签收" style="text;html=1;strokeColor=none;fillColor=none;align=center;verticalAlign=middle;whiteSpace=wrap;rounded=0;" parent="4nD7JM7ZIE-_De9rm8-C-1" vertex="1">
          <mxGeometry y="505" width="103" height="14" as="geometry" />
        </mxCell>
        <mxCell id="fpGJ1PohXhWPPfaMkgI3-7" value="签收" style="text;html=1;strokeColor=none;fillColor=none;align=center;verticalAlign=middle;whiteSpace=wrap;rounded=0;" parent="4nD7JM7ZIE-_De9rm8-C-1" vertex="1">
          <mxGeometry x="286" y="361" width="40" height="20" as="geometry" />
        </mxCell>
        <mxCell id="fpGJ1PohXhWPPfaMkgI3-8" value="结算" style="rounded=1;whiteSpace=wrap;html=1;" parent="4nD7JM7ZIE-_De9rm8-C-1" vertex="1">
          <mxGeometry x="564" y="441" width="120" height="60" as="geometry" />
        </mxCell>
        <mxCell id="fpGJ1PohXhWPPfaMkgI3-9" style="edgeStyle=orthogonalEdgeStyle;curved=1;rounded=0;orthogonalLoop=1;jettySize=auto;html=1;exitX=1;exitY=0.5;exitDx=0;exitDy=0;entryX=0;entryY=0.25;entryDx=0;entryDy=0;" parent="4nD7JM7ZIE-_De9rm8-C-1" source="fpGJ1PohXhWPPfaMkgI3-2" target="fpGJ1PohXhWPPfaMkgI3-8" edge="1">
          <mxGeometry relative="1" as="geometry" />
        </mxCell>
        <mxCell id="fpGJ1PohXhWPPfaMkgI3-10" value="支付,取消,发货,缺货,签收" style="text;html=1;strokeColor=none;fillColor=none;align=center;verticalAlign=middle;whiteSpace=wrap;rounded=0;" parent="4nD7JM7ZIE-_De9rm8-C-1" vertex="1">
          <mxGeometry x="365" y="402" width="137" height="17" as="geometry" />
        </mxCell>
        <mxCell id="fpGJ1PohXhWPPfaMkgI3-13" style="edgeStyle=orthogonalEdgeStyle;curved=1;rounded=0;orthogonalLoop=1;jettySize=auto;html=1;exitX=0;exitY=0.5;exitDx=0;exitDy=0;entryX=0.858;entryY=0;entryDx=0;entryDy=0;entryPerimeter=0;" parent="4nD7JM7ZIE-_De9rm8-C-1" source="fpGJ1PohXhWPPfaMkgI3-11" target="fpGJ1PohXhWPPfaMkgI3-2" edge="1">
          <mxGeometry relative="1" as="geometry" />
        </mxCell>
        <mxCell id="fpGJ1PohXhWPPfaMkgI3-11" value="交付" style="rounded=1;whiteSpace=wrap;html=1;" parent="4nD7JM7ZIE-_De9rm8-C-1" vertex="1">
          <mxGeometry x="405" y="139" width="120" height="60" as="geometry" />
        </mxCell>
        <mxCell id="fpGJ1PohXhWPPfaMkgI3-12" style="edgeStyle=orthogonalEdgeStyle;curved=1;rounded=0;orthogonalLoop=1;jettySize=auto;html=1;exitX=1;exitY=0;exitDx=0;exitDy=0;" parent="4nD7JM7ZIE-_De9rm8-C-1" source="fpGJ1PohXhWPPfaMkgI3-2" target="fpGJ1PohXhWPPfaMkgI3-11" edge="1">
          <mxGeometry relative="1" as="geometry" />
        </mxCell>
        <mxCell id="fpGJ1PohXhWPPfaMkgI3-14" value="签收" style="text;html=1;strokeColor=none;fillColor=none;align=center;verticalAlign=middle;whiteSpace=wrap;rounded=0;" parent="4nD7JM7ZIE-_De9rm8-C-1" vertex="1">
          <mxGeometry x="382" y="260" width="40" height="20" as="geometry" />
        </mxCell>
        <mxCell id="fpGJ1PohXhWPPfaMkgI3-15" value="截单" style="text;html=1;strokeColor=none;fillColor=none;align=center;verticalAlign=middle;whiteSpace=wrap;rounded=0;" parent="4nD7JM7ZIE-_De9rm8-C-1" vertex="1">
          <mxGeometry x="509" y="381" width="40" height="20" as="geometry" />
        </mxCell>
        <mxCell id="fpGJ1PohXhWPPfaMkgI3-16" value="发货" style="text;html=1;strokeColor=none;fillColor=none;align=center;verticalAlign=middle;whiteSpace=wrap;rounded=0;" parent="4nD7JM7ZIE-_De9rm8-C-1" vertex="1">
          <mxGeometry x="350" y="280" width="40" height="20" as="geometry" />
        </mxCell>
        <mxCell id="fpGJ1PohXhWPPfaMkgI3-17" value="缺货" style="text;html=1;strokeColor=none;fillColor=none;align=center;verticalAlign=middle;whiteSpace=wrap;rounded=0;" parent="4nD7JM7ZIE-_De9rm8-C-1" vertex="1">
          <mxGeometry x="318" y="320" width="40" height="20" as="geometry" />
        </mxCell>
        <mxCell id="fpGJ1PohXhWPPfaMkgI3-25" style="edgeStyle=orthogonalEdgeStyle;curved=1;rounded=0;orthogonalLoop=1;jettySize=auto;html=1;exitX=0.5;exitY=1;exitDx=0;exitDy=0;entryX=0.75;entryY=0;entryDx=0;entryDy=0;" parent="4nD7JM7ZIE-_De9rm8-C-1" source="fpGJ1PohXhWPPfaMkgI3-18" target="fpGJ1PohXhWPPfaMkgI3-8" edge="1">
          <mxGeometry relative="1" as="geometry" />
        </mxCell>
        <mxCell id="fpGJ1PohXhWPPfaMkgI3-18" value="老处罚" style="rounded=1;whiteSpace=wrap;html=1;" parent="4nD7JM7ZIE-_De9rm8-C-1" vertex="1">
          <mxGeometry x="692" y="160" width="120" height="60" as="geometry" />
        </mxCell>
        <mxCell id="fpGJ1PohXhWPPfaMkgI3-20" style="edgeStyle=orthogonalEdgeStyle;curved=1;rounded=0;orthogonalLoop=1;jettySize=auto;html=1;exitX=1;exitY=0.25;exitDx=0;exitDy=0;" parent="4nD7JM7ZIE-_De9rm8-C-1" source="fpGJ1PohXhWPPfaMkgI3-11" target="fpGJ1PohXhWPPfaMkgI3-18" edge="1">
          <mxGeometry relative="1" as="geometry" />
        </mxCell>
        <mxCell id="fpGJ1PohXhWPPfaMkgI3-19" value="新处罚" style="rounded=1;whiteSpace=wrap;html=1;" parent="4nD7JM7ZIE-_De9rm8-C-1" vertex="1">
          <mxGeometry x="819" y="180" width="120" height="60" as="geometry" />
        </mxCell>
        <mxCell id="fpGJ1PohXhWPPfaMkgI3-24" style="edgeStyle=orthogonalEdgeStyle;curved=1;rounded=0;orthogonalLoop=1;jettySize=auto;html=1;exitX=1;exitY=0.5;exitDx=0;exitDy=0;" parent="4nD7JM7ZIE-_De9rm8-C-1" source="fpGJ1PohXhWPPfaMkgI3-18" target="fpGJ1PohXhWPPfaMkgI3-19" edge="1">
          <mxGeometry relative="1" as="geometry" />
        </mxCell>
        <mxCell id="fpGJ1PohXhWPPfaMkgI3-21" value="缺货" style="text;html=1;strokeColor=none;fillColor=none;align=center;verticalAlign=middle;whiteSpace=wrap;rounded=0;" parent="4nD7JM7ZIE-_De9rm8-C-1" vertex="1">
          <mxGeometry x="636" y="139" width="40" height="20" as="geometry" />
        </mxCell>
        <mxCell id="fpGJ1PohXhWPPfaMkgI3-22" value="延期发货" style="text;html=1;strokeColor=none;fillColor=none;align=center;verticalAlign=middle;whiteSpace=wrap;rounded=0;" parent="4nD7JM7ZIE-_De9rm8-C-1" vertex="1">
          <mxGeometry x="657" y="224" width="63" height="11" as="geometry" />
        </mxCell>
        <mxCell id="fpGJ1PohXhWPPfaMkgI3-26" style="edgeStyle=orthogonalEdgeStyle;curved=1;rounded=0;orthogonalLoop=1;jettySize=auto;html=1;exitX=0;exitY=0.5;exitDx=0;exitDy=0;" parent="4nD7JM7ZIE-_De9rm8-C-1" source="fpGJ1PohXhWPPfaMkgI3-23" target="fpGJ1PohXhWPPfaMkgI3-8" edge="1">
          <mxGeometry relative="1" as="geometry" />
        </mxCell>
        <mxCell id="fpGJ1PohXhWPPfaMkgI3-23" value="售后" style="rounded=1;whiteSpace=wrap;html=1;" parent="4nD7JM7ZIE-_De9rm8-C-1" vertex="1">
          <mxGeometry x="787" y="502" width="120" height="60" as="geometry" />
        </mxCell>
        <mxCell id="fpGJ1PohXhWPPfaMkgI3-29" value="待发货" style="text;html=1;strokeColor=none;fillColor=none;align=center;verticalAlign=middle;whiteSpace=wrap;rounded=0;" parent="4nD7JM7ZIE-_De9rm8-C-1" vertex="1">
          <mxGeometry x="535" y="130" width="40" height="20" as="geometry" />
        </mxCell>
        <mxCell id="fpGJ1PohXhWPPfaMkgI3-31" value="待签收" style="text;html=1;strokeColor=none;fillColor=none;align=center;verticalAlign=middle;whiteSpace=wrap;rounded=0;" parent="4nD7JM7ZIE-_De9rm8-C-1" vertex="1">
          <mxGeometry x="541" y="99" width="40" height="20" as="geometry" />
        </mxCell>
        <mxCell id="fpGJ1PohXhWPPfaMkgI3-41" value="订单推OFC" style="text;html=1;strokeColor=none;fillColor=none;align=center;verticalAlign=middle;whiteSpace=wrap;rounded=0;" parent="4nD7JM7ZIE-_De9rm8-C-1" vertex="1">
          <mxGeometry x="112" y="305" width="71" height="11" as="geometry" />
        </mxCell>
        <mxCell id="fpGJ1PohXhWPPfaMkgI3-43" style="edgeStyle=orthogonalEdgeStyle;curved=1;rounded=0;orthogonalLoop=1;jettySize=auto;html=1;exitX=0.5;exitY=0;exitDx=0;exitDy=0;entryX=0.5;entryY=1;entryDx=0;entryDy=0;" parent="4nD7JM7ZIE-_De9rm8-C-1" source="fpGJ1PohXhWPPfaMkgI3-42" target="fpGJ1PohXhWPPfaMkgI3-2" edge="1">
          <mxGeometry relative="1" as="geometry" />
        </mxCell>
        <mxCell id="fpGJ1PohXhWPPfaMkgI3-42" value="开放平台" style="rounded=1;whiteSpace=wrap;html=1;" parent="4nD7JM7ZIE-_De9rm8-C-1" vertex="1">
          <mxGeometry x="119" y="542" width="120" height="60" as="geometry" />
        </mxCell>
        <mxCell id="fpGJ1PohXhWPPfaMkgI3-44" value="推送订单" style="text;html=1;strokeColor=none;fillColor=none;align=center;verticalAlign=middle;whiteSpace=wrap;rounded=0;" parent="4nD7JM7ZIE-_De9rm8-C-1" vertex="1">
          <mxGeometry x="240" y="545" width="70" height="14" as="geometry" />
        </mxCell>
        <mxCell id="fpGJ1PohXhWPPfaMkgI3-48" value="处罚推结算" style="text;html=1;strokeColor=none;fillColor=none;align=center;verticalAlign=middle;whiteSpace=wrap;rounded=0;" parent="4nD7JM7ZIE-_De9rm8-C-1" vertex="1">
          <mxGeometry x="688" y="342" width="64" height="17" as="geometry" />
        </mxCell>
        <mxCell id="fpGJ1PohXhWPPfaMkgI3-49" value="新老处罚" style="text;html=1;strokeColor=none;fillColor=none;align=center;verticalAlign=middle;whiteSpace=wrap;rounded=0;" parent="4nD7JM7ZIE-_De9rm8-C-1" vertex="1">
          <mxGeometry x="785" y="249" width="60" height="1" as="geometry" />
        </mxCell>
        <mxCell id="fpGJ1PohXhWPPfaMkgI3-72" style="edgeStyle=orthogonalEdgeStyle;curved=1;rounded=0;orthogonalLoop=1;jettySize=auto;html=1;exitX=0.75;exitY=1;exitDx=0;exitDy=0;entryX=0;entryY=0.25;entryDx=0;entryDy=0;" parent="4nD7JM7ZIE-_De9rm8-C-1" source="fpGJ1PohXhWPPfaMkgI3-51" target="fpGJ1PohXhWPPfaMkgI3-11" edge="1">
          <mxGeometry relative="1" as="geometry" />
        </mxCell>
        <mxCell id="fpGJ1PohXhWPPfaMkgI3-51" value="OFC" style="rounded=1;whiteSpace=wrap;html=1;" parent="4nD7JM7ZIE-_De9rm8-C-1" vertex="1">
          <mxGeometry x="47" y="64" width="74" height="49" as="geometry" />
        </mxCell>
        <mxCell id="fpGJ1PohXhWPPfaMkgI3-40" style="edgeStyle=orthogonalEdgeStyle;curved=1;rounded=0;orthogonalLoop=1;jettySize=auto;html=1;exitX=0.75;exitY=0;exitDx=0;exitDy=0;entryX=0.25;entryY=1;entryDx=0;entryDy=0;" parent="4nD7JM7ZIE-_De9rm8-C-1" source="fpGJ1PohXhWPPfaMkgI3-2" target="fpGJ1PohXhWPPfaMkgI3-51" edge="1">
          <mxGeometry relative="1" as="geometry">
            <mxPoint x="159" y="243" as="targetPoint" />
            <Array as="points">
              <mxPoint x="237" y="394" />
              <mxPoint x="237" y="323" />
              <mxPoint x="158" y="323" />
              <mxPoint x="158" y="301" />
              <mxPoint x="80" y="301" />
            </Array>
          </mxGeometry>
        </mxCell>
        <mxCell id="fpGJ1PohXhWPPfaMkgI3-71" style="edgeStyle=orthogonalEdgeStyle;curved=1;rounded=0;orthogonalLoop=1;jettySize=auto;html=1;exitX=0.5;exitY=1;exitDx=0;exitDy=0;entryX=0.75;entryY=0;entryDx=0;entryDy=0;" parent="4nD7JM7ZIE-_De9rm8-C-1" source="fpGJ1PohXhWPPfaMkgI3-55" target="fpGJ1PohXhWPPfaMkgI3-51" edge="1">
          <mxGeometry relative="1" as="geometry" />
        </mxCell>
        <mxCell id="fpGJ1PohXhWPPfaMkgI3-55" value="ERP" style="rounded=1;whiteSpace=wrap;html=1;" parent="4nD7JM7ZIE-_De9rm8-C-1" vertex="1">
          <mxGeometry x="78" y="44" width="74" height="49" as="geometry" />
        </mxCell>
        <mxCell id="fpGJ1PohXhWPPfaMkgI3-63" style="edgeStyle=orthogonalEdgeStyle;curved=1;rounded=0;orthogonalLoop=1;jettySize=auto;html=1;exitX=0.25;exitY=0;exitDx=0;exitDy=0;entryX=0;entryY=1;entryDx=0;entryDy=0;" parent="4nD7JM7ZIE-_De9rm8-C-1" source="fpGJ1PohXhWPPfaMkgI3-51" target="fpGJ1PohXhWPPfaMkgI3-55" edge="1">
          <mxGeometry relative="1" as="geometry" />
        </mxCell>
        <mxCell id="fpGJ1PohXhWPPfaMkgI3-69" style="edgeStyle=orthogonalEdgeStyle;curved=1;rounded=0;orthogonalLoop=1;jettySize=auto;html=1;exitX=0;exitY=0.75;exitDx=0;exitDy=0;" parent="4nD7JM7ZIE-_De9rm8-C-1" source="fpGJ1PohXhWPPfaMkgI3-56" target="fpGJ1PohXhWPPfaMkgI3-55" edge="1">
          <mxGeometry relative="1" as="geometry" />
        </mxCell>
        <mxCell id="fpGJ1PohXhWPPfaMkgI3-56" value="LCP" style="rounded=1;whiteSpace=wrap;html=1;" parent="4nD7JM7ZIE-_De9rm8-C-1" vertex="1">
          <mxGeometry x="206" y="24" width="74" height="49" as="geometry" />
        </mxCell>
        <mxCell id="fpGJ1PohXhWPPfaMkgI3-65" style="edgeStyle=orthogonalEdgeStyle;curved=1;rounded=0;orthogonalLoop=1;jettySize=auto;html=1;exitX=0;exitY=0;exitDx=0;exitDy=0;entryX=0;entryY=0.25;entryDx=0;entryDy=0;" parent="4nD7JM7ZIE-_De9rm8-C-1" source="fpGJ1PohXhWPPfaMkgI3-55" target="fpGJ1PohXhWPPfaMkgI3-56" edge="1">
          <mxGeometry relative="1" as="geometry" />
        </mxCell>
        <mxCell id="fpGJ1PohXhWPPfaMkgI3-67" style="edgeStyle=orthogonalEdgeStyle;curved=1;rounded=0;orthogonalLoop=1;jettySize=auto;html=1;exitX=0;exitY=0.75;exitDx=0;exitDy=0;entryX=1;entryY=0.75;entryDx=0;entryDy=0;" parent="4nD7JM7ZIE-_De9rm8-C-1" source="fpGJ1PohXhWPPfaMkgI3-57" target="fpGJ1PohXhWPPfaMkgI3-56" edge="1">
          <mxGeometry relative="1" as="geometry" />
        </mxCell>
        <mxCell id="4nD7JM7ZIE-_De9rm8-C-2" value="Text" style="edgeLabel;html=1;align=center;verticalAlign=middle;resizable=0;points=[];" vertex="1" connectable="0" parent="fpGJ1PohXhWPPfaMkgI3-67">
          <mxGeometry x="0.2297" y="-4" relative="1" as="geometry">
            <mxPoint as="offset" />
          </mxGeometry>
        </mxCell>
        <mxCell id="fpGJ1PohXhWPPfaMkgI3-57" value="WMS" style="rounded=1;whiteSpace=wrap;html=1;" parent="4nD7JM7ZIE-_De9rm8-C-1" vertex="1">
          <mxGeometry x="556" y="4" width="74" height="49" as="geometry" />
        </mxCell>
        <mxCell id="fpGJ1PohXhWPPfaMkgI3-66" style="edgeStyle=orthogonalEdgeStyle;curved=1;rounded=0;orthogonalLoop=1;jettySize=auto;html=1;exitX=1;exitY=0;exitDx=0;exitDy=0;entryX=0;entryY=0.25;entryDx=0;entryDy=0;" parent="4nD7JM7ZIE-_De9rm8-C-1" source="fpGJ1PohXhWPPfaMkgI3-56" target="fpGJ1PohXhWPPfaMkgI3-57" edge="1">
          <mxGeometry relative="1" as="geometry" />
        </mxCell>
        <mxCell id="fpGJ1PohXhWPPfaMkgI3-74" value="售后推结算" style="text;html=1;strokeColor=none;fillColor=none;align=center;verticalAlign=middle;whiteSpace=wrap;rounded=0;" parent="4nD7JM7ZIE-_De9rm8-C-1" vertex="1">
          <mxGeometry x="752" y="483" width="64" height="17" as="geometry" />
        </mxCell>
      </root>
    </mxGraphModel>
  </diagram>
</mxfile>
